<svg width="50" height="50" viewBox="0 0 50 50" fill="none" xmlns="http://www.w3.org/2000/svg">
<rect width="50" height="50" rx="8" fill="#1D63ED"/>
<path d="M40.48 23.2718C39.6955 22.7491 37.6339 22.5259 36.1352 22.9254C36.0544 21.4478 35.2847 20.2026 33.8765 19.1162L33.3552 18.7698L33.0078 19.2892C32.3248 20.3153 32.0371 21.6824 32.1391 22.925C32.2195 23.6906 32.4886 24.5513 33.0078 25.1758C31.0571 26.2958 29.2592 26.0415 21.2966 26.0415H9.00276C8.96679 27.8212 9.2558 31.2447 11.4553 34.0316C11.6981 34.3394 11.9647 34.6372 12.2537 34.9241C14.0419 36.6966 16.7436 37.9962 20.7838 38C26.9472 38.0054 32.2279 34.708 35.44 26.7347C36.497 26.7519 39.2871 26.9223 40.6526 24.3105C40.686 24.2665 41 23.6178 41 23.6178L40.48 23.2718ZM17.0259 21.6442H13.5688V25.0661H17.0259V21.6442ZM21.4921 21.6442H18.0351V25.0661H21.4921V21.6442ZM25.9583 21.6442H22.5013V25.0661H25.9583V21.6442ZM30.4245 21.6442H26.9675V25.0661H30.4245V21.6442ZM12.5597 21.6442H9.10262V25.0661H12.5597V21.6442ZM17.0259 17.3223H13.5688V20.7442H17.0259V17.3223ZM21.4921 17.3223H18.0351V20.7442H21.4921V17.3223ZM25.9583 17.3223H22.5013V20.7442H25.9583V17.3223ZM25.9583 13H22.5013V16.4218H25.9583V13Z" fill="white"/>
</svg>
