<svg width="50" height="50" viewBox="0 0 50 50" fill="none" xmlns="http://www.w3.org/2000/svg">
<rect width="50" height="50" rx="8" fill="#24292F"/>
<path d="M40 25.5C40 32.5 34 39 25 38.5C16.5 39 11 33.5 10 25.5C10 18.0442 16.7157 12 25 12C33.2843 12 40 18.0442 40 25.5Z" fill="white"/>
<path fill-rule="evenodd" clip-rule="evenodd" d="M25.0132 8C16.1583 8 9 15.1041 9 23.8929C9 30.9183 13.5866 36.8651 19.9494 38.9698C20.7449 39.1281 21.0363 38.6279 21.0363 38.2071C21.0363 37.8387 21.0101 36.5757 21.0101 35.2599C16.5556 36.2073 15.628 33.3653 15.628 33.3653C14.9121 31.5234 13.8514 31.05 13.8514 31.05C12.3935 30.0764 13.9576 30.0764 13.9576 30.0764C15.5749 30.1817 16.4235 31.7078 16.4235 31.7078C17.8549 34.1284 20.1615 33.4444 21.0894 33.0234C21.2218 31.9971 21.6463 31.2867 22.097 30.8921C18.5442 30.5237 14.8063 29.1555 14.8063 23.0508C14.8063 21.3141 15.4421 19.8933 16.4497 18.7883C16.2908 18.3937 15.7339 16.762 16.609 14.5781C16.609 14.5781 17.9611 14.157 21.0098 16.2095C22.315 15.8616 23.6611 15.6846 25.0132 15.6831C26.3653 15.6831 27.7436 15.8675 29.0164 16.2095C32.0654 14.157 33.4175 14.5781 33.4175 14.5781C34.2926 16.762 33.7354 18.3937 33.5764 18.7883C34.6106 19.8933 35.2202 21.3141 35.2202 23.0508C35.2202 29.1555 31.4823 30.4972 27.9029 30.8921C28.4864 31.392 28.9898 32.3391 28.9898 33.839C28.9898 35.9703 28.9636 37.6808 28.9636 38.2068C28.9636 38.6279 29.2553 39.1281 30.0505 38.9702C36.4133 36.8648 40.9999 30.9183 40.9999 23.8929C41.0261 15.1041 33.8416 8 25.0132 8Z" fill="#24292F"/>
</svg>
