<svg width="50" height="50" viewBox="0 0 50 50" fill="none" xmlns="http://www.w3.org/2000/svg">
<rect width="50" height="50" rx="8" fill="#1C3C3C"/>
<rect opacity="0.9" x="5" y="16" width="40" height="19" rx="9.5" fill="white"/>
<path d="M12.9435 14C6.3578 14 1 19.1591 1 25.5C1 31.8409 6.358 37 12.9435 37H36.0565C42.6422 37 48 31.8409 48 25.5C48 19.1591 42.642 14 36.0565 14H12.9435ZM12.7057 17.6556C13.6712 17.6791 14.7032 18.1275 15.1987 18.8331C15.918 19.7013 16.1344 20.8501 16.9502 21.6563C18.0477 22.813 19.2983 23.8315 20.3109 25.0633C21.2689 26.189 21.9532 27.5092 22.5505 28.8399C22.7941 29.2813 22.7966 29.8234 23.1576 30.2006C23.3354 30.4282 24.2045 31.0482 24.0159 31.2679C24.1246 31.4955 24.9367 31.8086 24.6549 32.0292C24.2742 32.1049 23.8463 32.1192 23.5551 31.8262C23.4476 32.0644 23.1967 31.9389 23.0031 31.9079C22.9863 31.9541 22.9699 32.0005 22.9541 32.047C22.3102 32.0884 21.8273 31.456 21.5206 30.9788C20.9114 30.6612 20.2199 30.4679 19.5975 30.1355C19.5619 30.6829 19.686 31.3616 19.1451 31.7148C19.1177 32.767 20.7972 31.8388 20.9511 32.6231C20.8317 32.6358 20.6993 32.6051 20.6037 32.6936C20.1652 33.1043 19.6627 32.3826 19.1575 32.6804C18.4791 33.0094 18.4117 33.278 17.572 33.3459C17.5256 33.278 17.544 33.234 17.5836 33.1926C17.8199 32.9281 17.8372 32.6167 18.2408 32.5038C17.8252 32.4406 17.4772 32.6613 17.1273 32.836C16.6723 33.0156 16.6761 32.4312 15.9762 32.867C15.8986 32.8061 15.9354 32.7507 15.9797 32.7036C16.1575 32.4943 16.3913 32.4635 16.6553 32.4752C15.3569 31.7783 14.7457 33.3274 14.1461 32.5569C13.9659 32.6029 13.8984 32.7588 13.7848 32.8693C13.6869 32.7657 13.7607 32.6401 13.7654 32.5182C13.6483 32.4652 13.4998 32.4406 13.5345 32.2599C13.3052 32.1852 13.1452 32.3157 12.9744 32.4399C12.8203 32.3249 13.0786 32.1578 13.1264 32.0381C13.2639 31.8082 13.5768 31.9909 13.7356 31.8252C14.1872 31.5779 14.8166 31.9791 15.3327 31.9113C15.7302 31.9595 16.2225 31.5662 16.0232 31.1739C15.598 30.6508 15.6726 29.9665 15.663 29.3409C15.6105 28.9762 14.7015 28.5124 14.4387 28.1191C14.1138 27.765 13.861 27.354 13.6078 26.9503C12.694 25.2472 12.9815 23.0586 11.8302 21.4774C11.3093 21.7546 10.6307 21.6237 10.1816 21.2524C9.9392 21.4651 9.92863 21.7436 9.90944 22.0391C9.32781 21.4791 9.40164 20.4209 9.86635 19.7977C10.0561 19.5516 10.2829 19.3491 10.5361 19.1708C10.5933 19.1305 10.6127 19.0916 10.6115 19.0296C10.8414 18.0337 11.7403 17.6322 12.7057 17.6556ZM37.003 18.5253C38.0948 18.5253 39.1192 18.9335 39.8896 19.6752C40.66 20.4169 41.0841 21.4042 41.0841 22.4553C41.0841 23.5065 40.6598 24.4934 39.8896 25.2342L38.1231 26.936C37.6529 27.3892 37.0749 27.7246 36.4396 27.9127L36.4075 27.9216L36.3961 27.9526C36.1928 28.472 35.8762 28.9432 35.4678 29.3343L33.7018 31.0349C32.9314 31.7768 31.906 32.185 30.8143 32.185C29.7225 32.185 28.6981 31.7766 27.9277 31.0349C26.3355 29.5022 26.3355 27.0089 27.9277 25.476L29.6939 23.7753C30.1625 23.3226 30.7397 22.9886 31.3741 22.803L31.4074 22.7929L31.4188 22.7631C31.6232 22.242 31.9404 21.769 32.3494 21.3759L34.1154 19.6752C34.8858 18.9333 35.9114 18.5253 37.003 18.5253ZM37.003 20.2203C36.698 20.2194 36.3958 20.2767 36.1139 20.389C35.8319 20.5014 35.5758 20.6665 35.3603 20.8749L33.5943 22.5755C33.3584 22.8031 33.1763 23.0773 33.0605 23.3792C32.9446 23.6812 32.8978 24.0037 32.9232 24.3248L32.9336 24.4329C32.9968 24.9343 33.2254 25.3866 33.5943 25.7407C33.8489 25.9857 34.1295 26.1404 34.4699 26.2485C34.4881 26.3472 34.4973 26.4473 34.4973 26.5476C34.4982 26.7691 34.4534 26.9885 34.3657 27.1931C34.278 27.3977 34.1491 27.5834 33.9864 27.7395L33.8779 27.8442C33.2878 27.6499 32.7959 27.3659 32.3515 26.9382C31.764 26.3751 31.3701 25.6512 31.2234 24.8645L31.204 24.7553L31.1137 24.8248C31.0538 24.8719 30.9965 24.922 30.9421 24.975L29.1749 26.6756C28.2696 27.5472 28.2696 28.9671 29.1749 29.8387C29.6275 30.2745 30.2226 30.4929 30.8188 30.4931C31.4147 30.4931 32.0088 30.2745 32.4614 29.8385L34.2276 28.1379C35.133 27.2663 35.133 25.8477 34.2276 24.9748C33.9862 24.7422 33.694 24.5647 33.3724 24.455C33.3548 24.3544 33.3456 24.2525 33.345 24.1504C33.345 23.6606 33.5453 23.1957 33.9131 22.8415C34.5043 23.0359 35.0294 23.3509 35.4723 23.7774C36.0612 24.3444 36.4503 25.0612 36.5996 25.8511L36.6201 25.9604L36.7092 25.8899C36.7699 25.8429 36.8279 25.7928 36.8829 25.7397L38.6494 24.0389C39.5545 23.1673 39.5557 21.7466 38.6494 20.8749C38.4337 20.6663 38.1773 20.5011 37.8952 20.3888C37.613 20.2764 37.3106 20.2192 37.0053 20.2203H37.003ZM17.4725 29.9699C17.3172 30.5519 17.2661 31.5437 16.4804 31.5725C16.4158 31.9082 16.7209 32.0347 17.0004 31.9268C17.2765 31.8048 17.4079 32.0228 17.5011 32.24C17.9274 32.3 18.5574 32.103 18.5813 31.6165C17.9449 31.2635 17.7485 30.5921 17.4725 29.9699Z" fill="#1C3C3C"/>
</svg>
