<svg width="287" height="287" viewBox="0 0 287 287" fill="none" xmlns="http://www.w3.org/2000/svg">
<circle cx="143.5" cy="143.5" r="143.5" fill="#F46B53"/>
<path d="M176.398 186.491C176.398 183.317 175.91 180.469 174.934 177.946C174.038 175.342 172.329 172.982 169.807 170.866C167.284 168.669 163.744 166.512 159.187 164.396C154.629 162.281 148.729 160.083 141.486 157.805C133.43 155.201 125.78 152.271 118.537 149.016C111.376 145.76 105.028 141.976 99.4941 137.663C94.0417 133.269 89.7285 128.182 86.5547 122.404C83.4622 116.626 81.916 109.912 81.916 102.263C81.916 94.8571 83.5436 88.1432 86.7988 82.1211C90.054 76.0176 94.6113 70.8092 100.471 66.4961C106.33 62.1016 113.247 58.7243 121.223 56.3643C129.279 54.0042 138.109 52.8242 147.712 52.8242C160.814 52.8242 172.248 55.1842 182.014 59.9043C191.779 64.6243 199.348 71.0941 204.719 79.3135C210.171 87.5329 212.897 96.9323 212.897 107.512H176.521C176.521 102.303 175.422 97.7461 173.225 93.8398C171.109 89.8522 167.854 86.7191 163.459 84.4404C159.146 82.1618 153.693 81.0225 147.102 81.0225C140.754 81.0225 135.464 81.999 131.232 83.9521C127.001 85.8239 123.827 88.3874 121.711 91.6426C119.595 94.8164 118.537 98.3971 118.537 102.385C118.537 105.396 119.27 108.122 120.734 110.563C122.281 113.005 124.559 115.284 127.57 117.399C130.581 119.515 134.284 121.509 138.679 123.381C143.073 125.253 148.16 127.084 153.938 128.874C163.622 131.804 172.126 135.1 179.45 138.762C186.856 142.424 193.041 146.534 198.005 151.091C202.969 155.648 206.713 160.816 209.235 166.594C211.758 172.372 213.02 178.923 213.02 186.247C213.02 193.978 211.514 200.896 208.503 206.999C205.492 213.103 201.138 218.27 195.441 222.502C189.745 226.734 182.95 229.948 175.056 232.146C167.162 234.343 158.332 235.441 148.566 235.441C139.777 235.441 131.11 234.302 122.565 232.023C114.021 229.663 106.249 226.123 99.25 221.403C92.3327 216.683 86.7988 210.661 82.6484 203.337C78.498 196.013 76.4229 187.346 76.4229 177.336H113.166C113.166 182.87 114.021 187.549 115.729 191.374C117.438 195.199 119.839 198.291 122.932 200.651C126.105 203.011 129.849 204.72 134.162 205.778C138.557 206.836 143.358 207.365 148.566 207.365C154.914 207.365 160.122 206.47 164.191 204.68C168.342 202.889 171.394 200.407 173.347 197.233C175.381 194.06 176.398 190.479 176.398 186.491Z" fill="white"/>
</svg>
