<svg width="50" height="50" viewBox="0 0 50 50" fill="none" xmlns="http://www.w3.org/2000/svg">
<rect width="50" height="50" rx="8" fill="#00684A"/>
<path d="M27.6043 13.3437C26.346 11.8498 25.2623 10.3326 25.041 10.0175C25.0176 9.99416 24.9827 9.99416 24.9594 10.0175C24.738 10.3326 23.6544 11.8498 22.396 13.3437C11.5948 27.127 24.0972 36.4287 24.0972 36.4287L24.202 36.4987C24.2952 37.9343 24.5283 40 24.5283 40H24.9943H25.4604C25.4604 40 25.6935 37.9459 25.7867 36.4987L25.8915 36.4171C25.9032 36.4171 38.4055 27.127 27.6043 13.3437ZM24.9943 36.2186C24.9943 36.2186 24.4351 35.7401 24.2836 35.495V35.4717L24.9594 20.4629C24.9594 20.4163 25.0293 20.4163 25.0293 20.4629L25.7051 35.4717V35.495C25.5536 35.7401 24.9943 36.2186 24.9943 36.2186Z" fill="white"/>
</svg>
