<svg width="50" height="50" viewBox="0 0 50 50" fill="none" xmlns="http://www.w3.org/2000/svg">
<rect width="50" height="50" rx="8" fill="white"/>
<rect x="0.5" y="0.5" width="49" height="49" rx="7.5" stroke="#666666" stroke-opacity="0.5"/>
<path d="M24.8333 11.0002C23.6787 11.0056 22.5761 11.1041 21.606 11.2757C18.748 11.7806 18.2291 12.8375 18.2291 14.7864V17.3604H24.9828V18.2184H18.2291H15.6945C13.7317 18.2184 12.013 19.3981 11.4754 21.6424C10.8553 24.215 10.8278 25.8202 11.4754 28.5064C11.9555 30.5058 13.102 31.9304 15.0648 31.9304H17.3869V28.8448C17.3869 26.6157 19.3156 24.6493 21.606 24.6493H28.3518C30.2296 24.6493 31.7287 23.1032 31.7287 21.2174V14.7864C31.7287 12.9561 30.1846 11.5812 28.3518 11.2757C27.1916 11.0826 25.9878 10.9949 24.8333 11.0002ZM21.1809 13.0704C21.8785 13.0704 22.4482 13.6494 22.4482 14.3613C22.4482 15.0707 21.8785 15.6444 21.1809 15.6444C20.4808 15.6444 19.9136 15.0707 19.9136 14.3613C19.9136 13.6494 20.4808 13.0704 21.1809 13.0704Z" fill="url(#paint0_linear_38_166)"/>
<path d="M32.5709 18.2183V21.2173C32.5709 23.5425 30.5997 25.4994 28.3518 25.4994H21.606C19.7582 25.4994 18.2291 27.0809 18.2291 28.9314V35.3624C18.2291 37.1927 19.8207 38.2692 21.606 38.7943C23.7438 39.4229 25.7939 39.5365 28.3518 38.7943C30.0521 38.302 31.7287 37.3113 31.7287 35.3624V32.7884H24.9828V31.9304H31.7287H35.1055C37.0683 31.9304 37.7997 30.5613 38.4823 28.5063C39.1875 26.3908 39.1575 24.3563 38.4823 21.6424C37.9973 19.6884 37.0708 18.2183 35.1055 18.2183H32.5709ZM28.7769 34.5044C29.477 34.5044 30.0442 35.078 30.0442 35.7874C30.0442 36.4993 29.477 37.0783 28.7769 37.0783C28.0792 37.0783 27.5096 36.4993 27.5096 35.7874C27.5096 35.078 28.0792 34.5044 28.7769 34.5044Z" fill="url(#paint1_linear_38_166)"/>
<defs>
<linearGradient id="paint0_linear_38_166" x1="11" y1="11" x2="26.5733" y2="24.2706" gradientUnits="userSpaceOnUse">
<stop stop-color="#5A9FD4"/>
<stop offset="1" stop-color="#306998"/>
</linearGradient>
<linearGradient id="paint1_linear_38_166" x1="28.6146" y1="35.571" x2="23.0274" y2="27.7418" gradientUnits="userSpaceOnUse">
<stop stop-color="#FFD43B"/>
<stop offset="1" stop-color="#FFE873"/>
</linearGradient>
</defs>
</svg>
