<svg width="50" height="50" viewBox="0 0 50 50" fill="none" xmlns="http://www.w3.org/2000/svg">
<rect width="50" height="50" rx="8" fill="#61DAFB"/>
<path d="M25.4999 27.8139C27.26 27.8139 28.6868 26.387 28.6868 24.627C28.6868 22.8669 27.26 21.4401 25.4999 21.4401C23.7398 21.4401 22.313 22.8669 22.313 24.627C22.313 26.387 23.7398 27.8139 25.4999 27.8139Z" fill="#FEFFFF"/>
<path d="M37.6046 19.3714C36.9896 19.1478 36.3466 18.9241 35.6757 18.7284C35.8435 18.0575 35.9832 17.3866 36.095 16.7436C36.6821 13.0535 36.0391 10.4537 34.25 9.44728C33.7189 9.13978 33.1318 9 32.4609 9C30.504 9 28.016 10.4537 25.5 12.8858C22.984 10.4537 20.496 9 18.5391 9C17.8682 9 17.2812 9.13978 16.75 9.44728C14.9609 10.4816 14.3179 13.0815 14.905 16.7436C15.0168 17.3866 15.1566 18.0575 15.3243 18.7284C14.6534 18.9241 14.0104 19.1198 13.3954 19.3714C9.90096 20.7133 8 22.5583 8 24.627C8 26.6957 9.92891 28.5407 13.3954 29.8826C14.0104 30.1062 14.6534 30.3299 15.3243 30.5256C15.1566 31.1965 15.0168 31.8674 14.905 32.5104C14.3179 36.2005 14.9609 38.8003 16.75 39.8067C17.2812 40.1142 17.8682 40.254 18.5391 40.254C20.524 40.254 23.012 38.8003 25.5 36.3682C28.016 38.8003 30.504 40.254 32.4609 40.254C33.1318 40.254 33.7189 40.1142 34.25 39.8067C36.0391 38.7724 36.6821 36.1725 36.095 32.5104C35.9832 31.8674 35.8435 31.1965 35.6757 30.5256C36.3466 30.3299 36.9896 30.1342 37.6046 29.8826C41.099 28.5407 43 26.6957 43 24.627C43 22.5583 41.099 20.7133 37.6046 19.3714ZM33.4673 10.845C34.6134 11.516 35.0048 13.5847 34.5296 16.52C34.4457 17.107 34.3059 17.722 34.1382 18.365C32.6845 18.0296 31.147 17.8059 29.5256 17.6661C28.5751 16.3243 27.5966 15.1222 26.6182 14.0319C28.6869 11.9912 30.7835 10.5935 32.4888 10.5935C32.8522 10.5935 33.1877 10.6773 33.4673 10.845ZM30.3363 27.4225C29.8331 28.3171 29.246 29.2117 28.631 30.1062C27.5966 30.1901 26.5623 30.2181 25.5 30.2181C24.4097 30.2181 23.3754 30.1901 22.369 30.1062C21.754 29.2117 21.1949 28.3171 20.6917 27.4225C20.1605 26.5 19.6573 25.5495 19.2101 24.627C19.6573 23.7045 20.1605 22.754 20.6917 21.8315C21.1949 20.9369 21.7819 20.0423 22.397 19.1478C23.4313 19.0639 24.4657 19.0359 25.528 19.0359C26.6182 19.0359 27.6526 19.0639 28.6589 19.1478C29.274 20.0423 29.8331 20.9369 30.3363 21.8315C30.8674 22.754 31.3706 23.7045 31.8179 24.627C31.3427 25.5495 30.8674 26.472 30.3363 27.4225ZM32.6565 26.5C33.0759 27.4784 33.4113 28.4289 33.7189 29.3794C32.7684 29.603 31.762 29.7708 30.6997 29.9105C31.0351 29.3794 31.3986 28.8203 31.7061 28.2332C32.0415 27.6462 32.349 27.0591 32.6565 26.5ZM25.5 34.0759C24.8291 33.349 24.1861 32.5663 23.5711 31.7556C24.2141 31.7836 24.857 31.8115 25.5 31.8115C26.143 31.8115 26.7859 31.7836 27.4289 31.7556C26.8139 32.5663 26.1709 33.349 25.5 34.0759ZM20.3003 29.8826C19.238 29.7428 18.2316 29.5751 17.2811 29.3514C17.5887 28.4289 17.9241 27.4505 18.3435 26.472C18.651 27.0312 18.9585 27.6182 19.2939 28.1773C19.6294 28.7923 19.9649 29.3235 20.3003 29.8826ZM18.3435 22.754C17.9241 21.7756 17.5887 20.8251 17.2811 19.8746C18.2316 19.651 19.238 19.4832 20.3003 19.3435C19.9649 19.8746 19.6014 20.4337 19.2939 21.0208C18.9585 21.6078 18.651 22.1949 18.3435 22.754ZM25.5 15.1781C26.1709 15.905 26.8139 16.6877 27.4289 17.4984C26.7859 17.4704 26.143 17.4425 25.5 17.4425C24.857 17.4425 24.2141 17.4704 23.5711 17.4984C24.1861 16.6877 24.8291 15.905 25.5 15.1781ZM31.7061 21.0487L30.6997 19.3714C31.762 19.5112 32.7684 19.6789 33.7189 19.9026C33.4113 20.8251 33.0759 21.8035 32.6565 22.782C32.349 22.1949 32.0415 21.6078 31.7061 21.0487ZM16.4704 16.52C15.9952 13.5847 16.3866 11.516 17.5327 10.845C17.8123 10.6773 18.1478 10.5935 18.5112 10.5935C20.1885 10.5935 22.2851 11.9633 24.3818 14.0319C23.4034 15.0943 22.4249 16.3243 21.4744 17.6661C19.853 17.8059 18.3155 18.0575 16.8618 18.365C16.6941 17.722 16.5823 17.107 16.4704 16.52ZM9.5655 24.627C9.5655 23.3131 11.1589 21.9153 13.9545 20.881C14.5136 20.6573 15.1286 20.4617 15.7436 20.2939C16.1909 21.6917 16.75 23.1733 17.4209 24.655C16.75 26.1366 16.1629 27.5903 15.7436 28.988C11.8858 27.8698 9.5655 26.1925 9.5655 24.627ZM17.5327 38.409C16.3866 37.738 15.9952 35.6693 16.4704 32.734C16.5543 32.147 16.6941 31.532 16.8618 30.889C18.3155 31.2244 19.853 31.4481 21.4744 31.5879C22.4249 32.9297 23.4034 34.1318 24.3818 35.222C22.3131 37.2628 20.2165 38.6605 18.5112 38.6605C18.1478 38.6605 17.8123 38.5767 17.5327 38.409ZM34.5296 32.734C35.0048 35.6693 34.6134 37.738 33.4673 38.409C33.1877 38.5767 32.8522 38.6605 32.4888 38.6605C30.8115 38.6605 28.7149 37.2907 26.6182 35.222C27.5966 34.1597 28.5751 32.9297 29.5256 31.5879C31.147 31.4481 32.6845 31.1965 34.1382 30.889C34.3059 31.532 34.4177 32.147 34.5296 32.734ZM37.0455 28.373C36.4864 28.5966 35.8714 28.7923 35.2564 28.9601C34.8091 27.5623 34.25 26.0807 33.5791 24.599C34.25 23.1174 34.8371 21.6637 35.2564 20.266C39.1142 21.3842 41.4345 23.0615 41.4345 24.627C41.4345 25.9409 39.8131 27.3387 37.0455 28.373Z" fill="#FEFFFF"/>
</svg>
