<svg width="53" height="53" viewBox="0 0 53 53" fill="none" xmlns="http://www.w3.org/2000/svg">
<path d="M26.5 31.2203C29.1069 31.2203 31.2203 29.1069 31.2203 26.5C31.2203 23.893 29.1069 21.7797 26.5 21.7797C23.893 21.7797 21.7797 23.893 21.7797 26.5C21.7797 29.1069 23.893 31.2203 26.5 31.2203Z" fill="#61DAFB"/>
<path d="M44.4289 18.7156C43.518 18.3844 42.5656 18.0531 41.5719 17.7633C41.8203 16.7695 42.0274 15.7758 42.193 14.8234C43.0625 9.35779 42.1102 5.50701 39.4602 4.01638C38.6735 3.56091 37.8039 3.35388 36.8102 3.35388C33.9117 3.35388 30.2266 5.50701 26.5 9.10935C22.7735 5.50701 19.0883 3.35388 16.1899 3.35388C15.1961 3.35388 14.3266 3.56091 13.5399 4.01638C10.8899 5.54841 9.93752 9.39919 10.8071 14.8234C10.9727 15.7758 11.1797 16.7695 11.4281 17.7633C10.4344 18.0531 9.48206 18.3429 8.57112 18.7156C3.39534 20.7031 0.579712 23.4359 0.579712 26.5C0.579712 29.564 3.43674 32.2969 8.57112 34.2844C9.48206 34.6156 10.4344 34.9469 11.4281 35.2367C11.1797 36.2304 10.9727 37.2242 10.8071 38.1765C9.93752 43.6422 10.8899 47.4929 13.5399 48.9836C14.3266 49.439 15.1961 49.6461 16.1899 49.6461C19.1297 49.6461 22.8149 47.4929 26.5 43.8906C30.2266 47.4929 33.9117 49.6461 36.8102 49.6461C37.8039 49.6461 38.6735 49.439 39.4602 48.9836C42.1102 47.4515 43.0625 43.6008 42.193 38.1765C42.0274 37.2242 41.8203 36.2304 41.5719 35.2367C42.5656 34.9469 43.518 34.657 44.4289 34.2844C49.6047 32.2969 52.4203 29.564 52.4203 26.5C52.4203 23.4359 49.6047 20.7031 44.4289 18.7156ZM38.3008 6.08669C39.9985 7.08044 40.5782 10.1445 39.8742 14.4922C39.75 15.3617 39.543 16.2726 39.2946 17.225C37.1414 16.7281 34.8641 16.3969 32.4625 16.1898C31.0547 14.2023 29.6055 12.4219 28.1563 10.807C31.2203 7.78435 34.3258 5.71404 36.8516 5.71404C37.3899 5.71404 37.8867 5.83826 38.3008 6.08669ZM33.6633 30.6406C32.918 31.9656 32.0485 33.2906 31.1375 34.6156C29.6055 34.7398 28.0735 34.7812 26.5 34.7812C24.8852 34.7812 23.3531 34.7398 21.8625 34.6156C20.9516 33.2906 20.1235 31.9656 19.3781 30.6406C18.5914 29.2742 17.8461 27.8664 17.1836 26.5C17.8461 25.1336 18.5914 23.7258 19.3781 22.3594C20.1235 21.0344 20.993 19.7094 21.9039 18.3844C23.436 18.2601 24.968 18.2187 26.5414 18.2187C28.1563 18.2187 29.6883 18.2601 31.1789 18.3844C32.0899 19.7094 32.918 21.0344 33.6633 22.3594C34.45 23.7258 35.1953 25.1336 35.8578 26.5C35.1539 27.8664 34.45 29.2328 33.6633 30.6406ZM37.1 29.2742C37.7211 30.7234 38.218 32.1312 38.6735 33.539C37.2656 33.8703 35.775 34.1187 34.2016 34.3258C34.6985 33.539 35.2367 32.7109 35.6922 31.8414C36.1891 30.9719 36.6446 30.1023 37.1 29.2742ZM26.5 40.4953C25.5063 39.4187 24.5539 38.2594 23.643 37.0586C24.5953 37.1 25.5477 37.1414 26.5 37.1414C27.4524 37.1414 28.4047 37.1 29.3571 37.0586C28.4461 38.2594 27.4938 39.4187 26.5 40.4953ZM18.7985 34.2844C17.225 34.0773 15.7344 33.8289 14.3266 33.4976C14.7821 32.1312 15.2789 30.682 15.9 29.2328C16.3555 30.0609 16.811 30.9304 17.3078 31.7586C17.8047 32.6695 18.3016 33.4562 18.7985 34.2844ZM15.9 23.7258C15.2789 22.2765 14.7821 20.8687 14.3266 19.4609C15.7344 19.1297 17.225 18.8812 18.7985 18.6742C18.3016 19.4609 17.7633 20.289 17.3078 21.1586C16.811 22.0281 16.3555 22.8976 15.9 23.7258ZM26.5 12.5047C27.4938 13.5812 28.4461 14.7406 29.3571 15.9414C28.4047 15.9 27.4524 15.8586 26.5 15.8586C25.5477 15.8586 24.5953 15.9 23.643 15.9414C24.5539 14.7406 25.5063 13.5812 26.5 12.5047ZM35.6922 21.2L34.2016 18.7156C35.775 18.9226 37.2656 19.1711 38.6735 19.5023C38.218 20.8687 37.7211 22.3179 37.1 23.7672C36.6446 22.8976 36.1891 22.0281 35.6922 21.2ZM13.1258 14.4922C12.4219 10.1445 13.0016 7.08044 14.6992 6.08669C15.1133 5.83826 15.6102 5.71404 16.1485 5.71404C18.6328 5.71404 21.7383 7.74294 24.8438 10.807C23.3946 12.3804 21.9453 14.2023 20.5375 16.1898C18.136 16.3969 15.8586 16.7695 13.7055 17.225C13.4571 16.2726 13.2914 15.3617 13.1258 14.4922ZM2.89846 26.5C2.89846 24.5539 5.25862 22.4836 9.39924 20.9515C10.2274 20.6203 11.1383 20.3304 12.0492 20.082C12.7117 22.1523 13.5399 24.3469 14.5336 26.5414C13.5399 28.7359 12.6703 30.889 12.0492 32.9594C6.33518 31.3031 2.89846 28.8187 2.89846 26.5ZM14.6992 46.9133C13.0016 45.9195 12.4219 42.8554 13.1258 38.5078C13.25 37.6383 13.4571 36.7273 13.7055 35.775C15.8586 36.2719 18.136 36.6031 20.5375 36.8101C21.9453 38.7976 23.3946 40.5781 24.8438 42.1929C21.7797 45.2156 18.6742 47.2859 16.1485 47.2859C15.6102 47.2859 15.1133 47.1617 14.6992 46.9133ZM39.8742 38.5078C40.5782 42.8554 39.9985 45.9195 38.3008 46.9133C37.8867 47.1617 37.3899 47.2859 36.8516 47.2859C34.3672 47.2859 31.2617 45.257 28.1563 42.1929C29.6055 40.6195 31.0547 38.7976 32.4625 36.8101C34.8641 36.6031 37.1414 36.2304 39.2946 35.775C39.543 36.7273 39.7086 37.6383 39.8742 38.5078ZM43.6008 32.0484C42.7727 32.3797 41.8617 32.6695 40.9508 32.9179C40.2883 30.8476 39.4602 28.6531 38.4664 26.4586C39.4602 24.264 40.3297 22.1109 40.9508 20.0406C46.6649 21.6969 50.1016 24.1812 50.1016 26.5C50.1016 28.4461 47.7 30.5164 43.6008 32.0484Z" fill="#61DAFB"/>
</svg>
