<svg width="50" height="50" viewBox="0 0 50 50" fill="none" xmlns="http://www.w3.org/2000/svg">
<rect width="50" height="50" rx="8" fill="white"/>
<rect x="0.5" y="0.5" width="49" height="49" rx="7.5" stroke="#666666" stroke-opacity="0.5"/>
<path fill-rule="evenodd" clip-rule="evenodd" d="M25.5 15C20.8333 15 17.9167 17.2909 16.75 21.8727C18.5 19.5818 20.5417 18.7227 22.875 19.2955C24.2063 19.6219 25.1578 20.5707 26.211 21.6201C27.9267 23.33 29.9126 25.3091 34.25 25.3091C38.9167 25.3091 41.8333 23.0182 43 18.4364C41.25 20.7273 39.2083 21.5864 36.875 21.0136C35.5437 20.6872 34.5922 19.7384 33.539 18.689C31.8233 16.9791 29.8374 15 25.5 15ZM16.75 25.3091C12.0833 25.3091 9.16667 27.6 8 32.1818C9.75 29.8909 11.7917 29.0318 14.125 29.6045C15.4563 29.9316 16.4078 30.8798 17.461 31.9292C19.1767 33.6391 21.1626 35.6182 25.5 35.6182C30.1667 35.6182 33.0833 33.3273 34.25 28.7455C32.5 31.0364 30.4583 31.8955 28.125 31.3227C26.7937 30.9963 25.8422 30.0475 24.789 28.9981C23.0733 27.2882 21.0874 25.3091 16.75 25.3091Z" fill="#38BDF8"/>
</svg>
