<svg width="50" height="50" viewBox="0 0 50 50" fill="none" xmlns="http://www.w3.org/2000/svg">
<rect width="50" height="50" rx="8" fill="#3178C6"/>
<path fill-rule="evenodd" clip-rule="evenodd" d="M29.4077 39.0661V43.8132C30.1836 44.2088 31.1012 44.5055 32.1605 44.7033C33.2199 44.9011 34.3365 45 35.5102 45C36.6541 45 37.7408 44.8912 38.7703 44.6736C39.7999 44.4561 40.7025 44.0975 41.4786 43.5981C42.2544 43.0987 42.8683 42.446 43.3212 41.6399C43.7736 40.8339 44 39.8375 44 38.6507C44 37.7903 43.8706 37.0362 43.6121 36.3884C43.3536 35.7406 42.9804 35.1645 42.4932 34.6602C42.0056 34.1557 41.4214 33.7033 40.7399 33.3028C40.0585 32.9022 39.2901 32.524 38.4346 32.1679C37.808 31.9108 37.246 31.6611 36.7486 31.4188C36.2512 31.1765 35.8285 30.9292 35.4804 30.677C35.1322 30.4248 34.8637 30.1578 34.6746 29.8759C34.4857 29.5941 34.3912 29.2751 34.3912 28.9191C34.3912 28.5927 34.4757 28.2985 34.6448 28.0364C34.8139 27.7743 35.0526 27.5493 35.361 27.3614C35.6693 27.1735 36.0474 27.0276 36.495 26.9238C36.9426 26.82 37.4399 26.768 37.987 26.768C38.3849 26.768 38.8051 26.7977 39.2478 26.8571C39.6905 26.9164 40.1356 27.0079 40.5832 27.1315C41.0308 27.2551 41.4658 27.4109 41.8889 27.5988C42.3116 27.7867 42.7018 28.0043 43.06 28.2515V23.8159C42.334 23.539 41.5404 23.3338 40.6802 23.2003C39.8197 23.0668 38.8325 23 37.7185 23C36.5845 23 35.5102 23.1212 34.4956 23.3635C33.481 23.6058 32.5883 23.984 31.8174 24.4983C31.0465 25.0126 30.4372 25.6678 29.9896 26.4639C29.542 27.2601 29.3182 28.212 29.3182 29.3196C29.3182 30.7339 29.7285 31.9404 30.5491 32.9393C31.3698 33.9382 32.6156 34.7838 34.2867 35.476C34.9433 35.7431 35.555 36.0052 36.122 36.2623C36.6889 36.5195 37.1788 36.7865 37.5916 37.0634C38.0044 37.3403 38.3302 37.6419 38.5689 37.9683C38.8077 38.2947 38.927 38.6656 38.927 39.0809C38.927 39.3875 38.8524 39.6718 38.7032 39.9339C38.554 40.196 38.3277 40.4235 38.0243 40.6163C37.7209 40.8092 37.343 40.96 36.8904 41.0688C36.4378 41.1776 35.9081 41.232 35.3013 41.232C34.2668 41.232 33.2423 41.0515 32.2277 40.6905C31.2131 40.3295 30.2731 39.788 29.4077 39.0661ZM21.1486 27.2751H27.3864V23.3793H10V27.2751H16.2072V44.6207H21.1486V27.2751Z" fill="white"/>
</svg>
